<svg width="24" height="23" viewBox="0 0 24 23" fill="none" xmlns="http://www.w3.org/2000/svg">
<path d="M22.2743 8.05333L15.8393 7.49333L13.3265 1.56C12.8745 0.48 11.3322 0.48 10.8802 1.56L8.36734 7.50667L1.94569 8.05333C0.775699 8.14667 0.297066 9.61333 1.18785 10.3867L6.06725 14.6267L4.60476 20.92C4.33885 22.0667 5.57532 22.9733 6.58576 22.36L12.1033 19.0267L17.6209 22.3733C18.6313 22.9867 19.8678 22.08 19.6019 20.9333L18.1394 14.6267L23.0188 10.3867C23.9096 9.61333 23.4443 8.14667 22.2743 8.05333V8.05333ZM12.1033 16.5333L7.10428 19.56L8.43382 13.8533L4.01976 10.0133L9.84313 9.50667L12.1033 4.13333L14.3768 9.52L20.2002 10.0267L15.7861 13.8667L17.1157 19.5733L12.1033 16.5333Z" fill="#A9B8B9"/>
</svg>
