<svg width="21" height="13" viewBox="0 0 21 13" fill="none" xmlns="http://www.w3.org/2000/svg">
<path d="M10.1229 0C4.6186 0 0.151367 2.24 0.151367 5C0.151367 7.24 3.08299 9.13 7.13142 9.77V11.79C7.13142 12.24 7.66989 12.46 7.979 12.14L10.7611 9.35C10.9605 9.15 10.9605 8.84 10.7611 8.64L7.979 5.85C7.66989 5.54 7.13142 5.76 7.13142 6.21V7.73C3.9904 7.17 2.14567 5.83 2.14567 5C2.14567 3.94 5.17701 2 10.1229 2C15.0687 2 18.1001 3.94 18.1001 5C18.1001 5.66 16.9035 6.68 14.7895 7.34C14.3807 7.47 14.1115 7.85 14.1115 8.28C14.1115 8.95 14.7596 9.44 15.3878 9.24C18.2098 8.36 20.0944 6.79 20.0944 5C20.0944 2.24 15.6271 0 10.1229 0Z" fill="#6B7280"/>
</svg>
