<svg width="25" height="24" viewBox="0 0 25 24" fill="none" xmlns="http://www.w3.org/2000/svg">
<g id="Group">
<g id="Group_2">
<g id="Group_3">
<path id="Vector" d="M19.1624 3H5.20231C4.10544 3 3.20801 3.9 3.20801 5V19C3.20801 20.1 4.10544 21 5.20231 21H19.1624C20.2593 21 21.1567 20.1 21.1567 19V5C21.1567 3.9 20.2593 3 19.1624 3ZM17.1681 8H15.7522V11.33H13.1795V14.66H10.6069L10.6368 18H7.19661C6.64818 18 6.19946 17.55 6.19946 17C6.19946 16.45 6.64818 16 7.19661 16H8.61257V12.67H11.1852V9.33H13.7579V6H17.1681C17.7166 6 18.1653 6.45 18.1653 7C18.1653 7.55 17.7166 8 17.1681 8Z" fill="#59C154"/>
</g>
</g>
</g>
</svg>
