<svg width="25" height="24" viewBox="0 0 25 24" fill="none" xmlns="http://www.w3.org/2000/svg">
<g id="Line / facebook">
<path id="&#240;&#159;&#142;&#168; Icon color" fill-rule="evenodd" clip-rule="evenodd" d="M10.0188 20H12.0224V13.8C12.0224 13.247 12.4702 12.8 13.0242 12.8H15.2682L15.7141 11.2H13.0242C12.4702 11.2 12.0224 10.753 12.0224 10.2V7.5C12.0224 6.452 12.921 5.6 14.026 5.6H16.0296V4H14.026C11.816 4 10.0188 5.57 10.0188 7.5V10.2C10.0188 10.753 9.57098 11.2 9.01699 11.2H7.01338V12.8H9.01699C9.57098 12.8 10.0188 13.247 10.0188 13.8V20ZM13.0242 22H9.01699C8.46299 22 8.01518 21.553 8.01518 21V14.8H6.01157C5.45757 14.8 5.00977 14.353 5.00977 13.8V10.2C5.00977 9.647 5.45757 9.2 6.01157 9.2H8.01518V7.5C8.01518 4.468 10.711 2 14.026 2H17.0314C17.5854 2 18.0332 2.447 18.0332 3V6.6C18.0332 7.152 17.5854 7.6 17.0314 7.6H14.026V9.2H17.0314C17.344 9.2 17.6395 9.347 17.8289 9.595C18.0182 9.844 18.0803 10.167 17.9972 10.468L16.9954 14.067C16.8751 14.5 16.4794 14.8 16.0296 14.8H14.026V21C14.026 21.553 13.5782 22 13.0242 22Z" fill="#E8F0F1"/>
<mask id="mask0_321_379" style="mask-type:luminance" maskUnits="userSpaceOnUse" x="5" y="2" width="14" height="20">
<path id="&#240;&#159;&#142;&#168; Icon color_2" fill-rule="evenodd" clip-rule="evenodd" d="M10.0188 20H12.0224V13.8C12.0224 13.247 12.4702 12.8 13.0242 12.8H15.2682L15.7141 11.2H13.0242C12.4702 11.2 12.0224 10.753 12.0224 10.2V7.5C12.0224 6.452 12.921 5.6 14.026 5.6H16.0296V4H14.026C11.816 4 10.0188 5.57 10.0188 7.5V10.2C10.0188 10.753 9.57098 11.2 9.01699 11.2H7.01338V12.8H9.01699C9.57098 12.8 10.0188 13.247 10.0188 13.8V20ZM13.0242 22H9.01699C8.46299 22 8.01518 21.553 8.01518 21V14.8H6.01157C5.45757 14.8 5.00977 14.353 5.00977 13.8V10.2C5.00977 9.647 5.45757 9.2 6.01157 9.2H8.01518V7.5C8.01518 4.468 10.711 2 14.026 2H17.0314C17.5854 2 18.0332 2.447 18.0332 3V6.6C18.0332 7.152 17.5854 7.6 17.0314 7.6H14.026V9.2H17.0314C17.344 9.2 17.6395 9.347 17.8289 9.595C18.0182 9.844 18.0803 10.167 17.9972 10.468L16.9954 14.067C16.8751 14.5 16.4794 14.8 16.0296 14.8H14.026V21C14.026 21.553 13.5782 22 13.0242 22Z" fill="white"/>
</mask>
<g mask="url(#mask0_321_379)">
</g>
</g>
</svg>
