<svg width="24" height="23" viewBox="0 0 24 23" fill="none" xmlns="http://www.w3.org/2000/svg">
<g clip-path="url(#clip0_321_382)">
<path fill-rule="evenodd" clip-rule="evenodd" d="M6.05984 7.14453H0.0175781V22.9813H6.05984V7.14453ZM1.01366 8.16645H5.02793V21.9338H1.01366V8.16645Z" fill="#E8F0F1" stroke="#E8F0F1" stroke-width="0.26465" stroke-miterlimit="22.9256"/>
<path fill-rule="evenodd" clip-rule="evenodd" d="M13.0033 14.3137V21.9165H9.04912V8.17644H13.0033V10.6039C13.404 10.4948 14.9079 7.4173 18.396 8.3591C19.3858 8.62638 20.2735 9.23094 20.8538 9.93018C21.4515 10.6505 21.9902 11.8383 21.9902 12.8481V21.9166H18.036V14.2221C18.036 12.9169 16.8441 11.7489 15.7443 11.7489C14.9127 11.7489 14.2909 11.8716 13.6879 12.5383C13.332 12.9317 13.0033 13.5701 13.0033 14.3137V14.3137ZM8.01562 22.97H14.0368V14.2679C14.0368 13.5072 14.7091 12.8023 15.3399 12.8023C15.8192 12.8023 16.1689 12.8085 16.5832 13.2296C16.7511 13.4002 17.0025 13.8574 17.0025 14.1763V22.97H23.0237V12.8023C23.0237 11.6404 22.383 10.1613 21.663 9.28848C20.3773 7.72977 18.2394 6.85892 16.129 7.24037C14.9386 7.45556 14.2497 8.07269 14.0368 8.13065C14.0368 7.69746 14.1226 7.12305 13.902 7.12305H8.01565V22.97H8.01562Z" fill="#E8F0F1" stroke="#E8F0F1" stroke-width="0.26465" stroke-miterlimit="22.9256"/>
<path fill-rule="evenodd" clip-rule="evenodd" d="M3.0731 5.1085C2.81792 5.1085 2.48079 5.0349 2.28233 4.95269C1.99593 4.83407 1.92052 4.76138 1.69849 4.586C0.888588 3.94627 0.783448 2.4736 1.63962 1.6322C1.64901 1.62296 1.67714 1.59763 1.68671 1.58861L2.08392 1.30645C2.68359 1.00352 3.33708 0.973689 3.94333 1.29027C5.04108 1.86351 5.42883 3.46948 4.4326 4.479C4.08751 4.82871 3.60989 5.1085 3.0731 5.1085ZM0.0175781 2.9559C0.0175781 4.34092 0.597487 5.26281 1.7844 5.87246C2.53746 6.25925 3.45286 6.22743 4.21021 5.90113C4.53065 5.76308 4.87328 5.51326 5.1274 5.27877C5.22919 5.18485 5.20511 5.17922 5.2889 5.07697C6.33902 3.79562 6.25991 2.04683 5.21913 0.997517C4.92824 0.704248 4.75753 0.539072 4.37673 0.344731C3.56574 -0.0691311 2.51 -0.102427 1.69465 0.314239C1.42753 0.450742 1.06031 0.713027 0.858551 0.92763C0.65785 1.14113 0.403806 1.50303 0.292346 1.77031C0.149473 2.11288 0.0176023 2.47793 0.0176023 2.95588L0.0175781 2.9559Z" fill="#E8F0F1" stroke="#E8F0F1" stroke-width="0.26465" stroke-miterlimit="22.9256"/>
</g>
<defs>
<clipPath id="clip0_321_382">
<rect width="23.0415" height="23" fill="white"/>
</clipPath>
</defs>
</svg>
