<svg width="25" height="24" viewBox="0 0 25 24" fill="none" xmlns="http://www.w3.org/2000/svg">
<g id="meeting_room">
<path id="Vector" d="M20.4897 19H19.4925V5C19.4925 4.45 19.0438 4 18.4953 4H14.5067C14.5067 3.45 14.058 3 13.5096 3H6.52954C5.98111 3 5.53239 3.45 5.53239 4V19H4.53524C3.9868 19 3.53809 19.45 3.53809 20C3.53809 20.55 3.9868 21 4.53524 21H13.5096C14.058 21 14.5067 20.55 14.5067 20V6H17.4982V20C17.4982 20.55 17.9469 21 18.4953 21H20.4897C21.0381 21 21.4868 20.55 21.4868 20C21.4868 19.45 21.0381 19 20.4897 19ZM12.5124 13H10.5181V11H12.5124V13Z" fill="#59C154"/>
</g>
</svg>
